<svg width="24" height="24" viewBox="0 0 24 24" fill="none" xmlns="http://www.w3.org/2000/svg">
<path d="M3 11L3.15288 14.2269C3.31714 17.6686 3.39927 19.3894 4.55885 20.4447C5.71843 21.5 7.52716 21.5 11.1446 21.5H12.8554C16.4728 21.5 18.2816 21.5 19.4412 20.4447C20.6007 19.3894 20.6829 17.6686 20.8471 14.2269L21 11" stroke="#F7F7F7" stroke-width="2" stroke-linecap="round" stroke-linejoin="round"/>
<path d="M2.84718 10.4431C4.54648 13.6744 8.3792 15 12 15C15.6208 15 19.4535 13.6744 21.1528 10.4431C21.964 8.90056 21.3498 6 19.352 6H4.648C2.65023 6 2.03603 8.90056 2.84718 10.4431Z" fill="#F7F7F7" stroke="#F7F7F7" stroke-width="2"/>
<path fill-rule="evenodd" clip-rule="evenodd" d="M11.9999 11H12.0089Z" fill="#F7F7F7"/>
<path d="M11.9999 11H12.0089" stroke="#F7F7F7" stroke-width="2" stroke-linecap="round" stroke-linejoin="round"/>
<path d="M15.9999 6L15.9116 5.69094C15.4716 4.15089 15.2516 3.38087 14.7278 2.94043C14.204 2.5 13.5083 2.5 12.1168 2.5H11.8829C10.4915 2.5 9.79575 2.5 9.27198 2.94043C8.7482 3.38087 8.52819 4.15089 8.08818 5.69094L7.99988 6" stroke="#F7F7F7" stroke-width="2"/>
<path d="M3 9L3.15288 12.2269C3.31714 15.6686 3.39927 17.3894 4.55885 18.4447C5.71843 19.5 7.52716 19.5 11.1446 19.5H12.8554C16.4728 19.5 18.2816 19.5 19.4412 18.4447C20.6007 17.3894 20.6829 15.6686 20.8471 12.2269L21 9" stroke="#F7F7F7" stroke-width="2" stroke-linecap="round" stroke-linejoin="round"/>
<path d="M3 8L3.15288 11.2269C3.31714 14.6686 3.39927 16.3894 4.55885 17.4447C5.71843 18.5 7.52716 18.5 11.1446 18.5H12.8554C16.4728 18.5 18.2816 18.5 19.4412 17.4447C20.6007 16.3894 20.6829 14.6686 20.8471 11.2269L21 8" stroke="#F7F7F7" stroke-width="2" stroke-linecap="round" stroke-linejoin="round"/>
<path d="M3 9L3.15288 11.4586C3.31714 14.0808 3.39927 15.3919 4.55885 16.196C5.71843 17 7.52716 17 11.1446 17H12.8554C16.4728 17 18.2816 17 19.4412 16.196C20.6007 15.3919 20.6829 14.0808 20.8471 11.4586L21 9" stroke="#F7F7F7" stroke-width="2" stroke-linecap="round" stroke-linejoin="round"/>
<path d="M3 8L3.15288 10.4586C3.31714 13.0808 3.39927 14.3919 4.55885 15.196C5.71843 16 7.52716 16 11.1446 16H12.8554C16.4728 16 18.2816 16 19.4412 15.196C20.6007 14.3919 20.6829 13.0808 20.8471 10.4586L21 8" stroke="#F7F7F7" stroke-width="2" stroke-linecap="round" stroke-linejoin="round"/>
<path d="M3 7L3.15288 9.4586C3.31714 12.0808 3.39927 13.3919 4.55885 14.196C5.71843 15 7.52716 15 11.1446 15H12.8554C16.4728 15 18.2816 15 19.4412 14.196C20.6007 13.3919 20.6829 12.0808 20.8471 9.4586L21 7" stroke="#F7F7F7" stroke-width="2" stroke-linecap="round" stroke-linejoin="round"/>
</svg>
