<svg width="23" height="25" viewBox="0 0 23 25" fill="none" xmlns="http://www.w3.org/2000/svg">
<path fill-rule="evenodd" clip-rule="evenodd" d="M21.219 7.83L20.5244 6.57901C19.9368 5.52049 18.6345 5.15532 17.6132 5.76269V5.76269C17.1271 6.05992 16.547 6.14425 16.0009 5.99708C15.4548 5.84991 14.9875 5.48333 14.702 4.97817C14.5184 4.65709 14.4198 4.29137 14.416 3.91801V3.91801C14.4326 3.31942 14.215 2.73936 13.8128 2.30997C13.4107 1.88058 12.8581 1.63843 12.2812 1.63867H10.8818C10.3165 1.63867 9.77451 1.87245 9.37577 2.28828C8.97702 2.70412 8.75438 3.26773 8.75709 3.8544V3.8544C8.74034 5.06568 7.78941 6.03846 6.62222 6.03833C6.26249 6.03445 5.91012 5.93205 5.60075 5.74149V5.74149C4.57946 5.13412 3.2772 5.49928 2.68956 6.55781L1.94389 7.83C1.35697 8.8872 1.70402 10.2379 2.72021 10.8515V10.8515C3.38074 11.2473 3.78765 11.9787 3.78765 12.7703C3.78765 13.5619 3.38074 14.2934 2.72021 14.6892V14.6892C1.70531 15.2986 1.35788 16.6461 1.94389 17.7001V17.7001L2.6487 18.9617C2.92403 19.4773 3.38599 19.8578 3.93235 20.0189C4.47871 20.1801 5.06443 20.1087 5.55989 19.8204V19.8204C6.04696 19.5254 6.62738 19.4446 7.17213 19.5959C7.71689 19.7472 8.18084 20.1181 8.46087 20.6261C8.64448 20.9472 8.74314 21.3129 8.74688 21.6863V21.6863C8.74688 22.91 9.70269 23.902 10.8818 23.902H12.2812C13.4562 23.902 14.4104 22.9165 14.416 21.6969V21.6969C14.4133 21.1084 14.6373 20.5431 15.0383 20.127C15.4393 19.7108 15.9839 19.4783 16.5509 19.4811C16.9098 19.4911 17.2607 19.5931 17.5724 19.778V19.778C18.591 20.3871 19.8924 20.0269 20.4836 18.9723V18.9723L21.219 17.7001C21.5037 17.1929 21.5818 16.5889 21.4361 16.0218C21.2904 15.4547 20.9329 14.9713 20.4427 14.6786V14.6786C19.9525 14.3859 19.595 13.9025 19.4493 13.3354C19.3036 12.7683 19.3817 12.1643 19.6664 11.6572C19.8515 11.3217 20.1195 11.0436 20.4427 10.8515V10.8515C21.4528 10.2383 21.799 8.89542 21.219 7.8406V7.8406V7.83Z" stroke="#F7F7F7" stroke-width="2" stroke-linecap="round" stroke-linejoin="round"/>
<ellipse cx="11.5866" cy="12.7703" rx="2.94183" ry="3.05326" stroke="#F7F7F7" stroke-width="2" stroke-linecap="round" stroke-linejoin="round"/>
</svg>
