<svg width="25" height="25" viewBox="0 0 25 25" fill="none" xmlns="http://www.w3.org/2000/svg">
<path d="M3.63599 11.8987L3.78886 15.1256C3.95312 18.5672 4.03525 20.2881 5.19483 21.3434C6.35441 22.3987 8.16315 22.3987 11.7806 22.3987H13.4914C17.1088 22.3987 18.9176 22.3987 20.0771 21.3434C21.2367 20.2881 21.3189 18.5672 21.4831 15.1256L21.636 11.8987" stroke="#F7F7F7" stroke-width="2" stroke-linecap="round" stroke-linejoin="round"/>
<path d="M3.48317 11.3417C5.18246 14.5731 9.01518 15.8987 12.636 15.8987C16.2568 15.8987 20.0895 14.5731 21.7888 11.3417C22.6 9.79924 21.9858 6.89868 19.988 6.89868H5.28399C3.28622 6.89868 2.67201 9.79924 3.48317 11.3417Z" stroke="#F7F7F7" stroke-width="2"/>
<path d="M12.6359 11.8987H12.6448" stroke="#F7F7F7" stroke-width="2" stroke-linecap="round" stroke-linejoin="round"/>
<path d="M16.6359 6.89868L16.5476 6.58962C16.1075 5.04957 15.8875 4.27955 15.3638 3.83912C14.84 3.39868 14.1443 3.39868 12.7528 3.39868H12.5189C11.1275 3.39868 10.4317 3.39868 9.90796 3.83912C9.38419 4.27955 9.16418 5.04957 8.72417 6.58962L8.63586 6.89868" stroke="#F7F7F7" stroke-width="2"/>
</svg>
