<svg width="16" height="21" viewBox="0 0 16 21" fill="none" xmlns="http://www.w3.org/2000/svg">
<g opacity="0.4">
<path d="M1.34248 15.6162C1.53105 16.9993 2.6911 18.083 4.10278 18.1471C5.29065 18.201 6.49731 18.2291 7.82612 18.2291C9.15492 18.2291 10.3616 18.201 11.5495 18.1471C12.9611 18.083 14.1212 16.9993 14.3097 15.6162C14.4328 14.7135 14.5343 13.7884 14.5343 12.8463C14.5343 11.9042 14.4328 10.9792 14.3097 10.0764C14.1212 8.69328 12.9611 7.60966 11.5495 7.54556C10.3616 7.49163 9.15492 7.4635 7.82612 7.4635C6.49731 7.4635 5.29065 7.49163 4.10278 7.54556C2.6911 7.60966 1.53105 8.69328 1.34248 10.0764C1.21942 10.9792 1.11792 11.9042 1.11792 12.8463C1.11792 13.7884 1.21942 14.7135 1.34248 15.6162Z" stroke="#8A8D90" stroke-width="1.5"/>
<path d="M4.05273 7.4635V5.39319C4.05273 3.33506 5.74213 1.66663 7.82609 1.66663C9.91006 1.66663 11.5995 3.33506 11.5995 5.39319V7.4635" stroke="#8A8D90" stroke-width="1.5" stroke-linecap="round" stroke-linejoin="round"/>
<path d="M7.82288 12.8463H7.83041" stroke="#8A8D90" stroke-width="2" stroke-linecap="round" stroke-linejoin="round"/>
</g>
</svg>
