<svg width="16" height="19" viewBox="0 0 16 19" fill="none" xmlns="http://www.w3.org/2000/svg">
<path d="M1.34248 15.0538C1.53105 16.437 2.6911 17.5206 4.10278 17.5847C5.29065 17.6386 6.49731 17.6667 7.82612 17.6667C9.15492 17.6667 10.3616 17.6386 11.5495 17.5847C12.9611 17.5206 14.1212 16.437 14.3097 15.0538C14.4328 14.1511 14.5343 13.226 14.5343 12.2839C14.5343 11.3418 14.4328 10.4168 14.3097 9.51407C14.1212 8.13091 12.9611 7.04728 11.5495 6.98319C10.3616 6.92925 9.15492 6.90112 7.82612 6.90112C6.49731 6.90112 5.29065 6.92925 4.10278 6.98318C2.6911 7.04728 1.53105 8.13091 1.34248 9.51407C1.21942 10.4168 1.11792 11.3418 1.11792 12.2839C1.11792 13.226 1.21942 14.1511 1.34248 15.0538Z" stroke="#8A8D90" stroke-width="1.5"/>
<path d="M4.05273 6.90112V4.83081C4.05273 2.77269 5.74213 1.10425 7.82609 1.10425C9.91006 1.10425 11.5995 2.77269 11.5995 4.83081V6.90112" stroke="#8A8D90" stroke-width="1.5" stroke-linecap="round" stroke-linejoin="round"/>
<path d="M7.82275 12.2839H7.83029" stroke="#8A8D90" stroke-width="2" stroke-linecap="round" stroke-linejoin="round"/>
</svg>
