<svg width="28" height="28" viewBox="0 0 28 28" fill="none" xmlns="http://www.w3.org/2000/svg">
<path fill-rule="evenodd" clip-rule="evenodd" d="M23.855 8.83L23.1604 7.57901C22.5728 6.52049 21.2705 6.15532 20.2492 6.76269V6.76269C19.7631 7.05992 19.183 7.14425 18.6369 6.99708C18.0907 6.84991 17.6234 6.48333 17.338 5.97817C17.1544 5.65709 17.0558 5.29137 17.052 4.91801V4.91801C17.0686 4.31942 16.851 3.73936 16.4488 3.30997C16.0466 2.88058 15.4941 2.63843 14.9172 2.63867H13.5177C12.9525 2.63867 12.4105 2.87245 12.0118 3.28828C11.613 3.70412 11.3904 4.26773 11.3931 4.8544V4.8544C11.3763 6.06568 10.4254 7.03846 9.25821 7.03833C8.89847 7.03445 8.54611 6.93205 8.23674 6.74149V6.74149C7.21545 6.13412 5.91318 6.49928 5.32555 7.55781L4.57987 8.83C3.99295 9.8872 4.34 11.2379 5.35619 11.8515V11.8515C6.01673 12.2473 6.42364 12.9787 6.42364 13.7703C6.42364 14.5619 6.01673 15.2934 5.35619 15.6892V15.6892C4.34129 16.2986 3.99387 17.6461 4.57987 18.7001V18.7001L5.28469 19.9617C5.56002 20.4773 6.02198 20.8578 6.56834 21.0189C7.1147 21.1801 7.70041 21.1087 8.19588 20.8204V20.8204C8.68295 20.5254 9.26337 20.4446 9.80812 20.5959C10.3529 20.7472 10.8168 21.1181 11.0969 21.6261C11.2805 21.9472 11.3791 22.3129 11.3829 22.6863V22.6863C11.3829 23.91 12.3387 24.902 13.5177 24.902H14.9172C16.0922 24.902 17.0464 23.9165 17.052 22.6969V22.6969C17.0493 22.1084 17.2733 21.5431 17.6743 21.127C18.0753 20.7108 18.6199 20.4783 19.1869 20.4811C19.5458 20.4911 19.8967 20.5931 20.2084 20.778V20.778C21.227 21.3871 22.5284 21.0269 23.1196 19.9723V19.9723L23.855 18.7001C24.1397 18.1929 24.2178 17.5889 24.0721 17.0218C23.9264 16.4547 23.5689 15.9713 23.0787 15.6786V15.6786C22.5885 15.3859 22.231 14.9025 22.0853 14.3354C21.9396 13.7683 22.0177 13.1643 22.3024 12.6572C22.4875 12.3217 22.7555 12.0436 23.0787 11.8515V11.8515C24.0888 11.2383 24.435 9.89542 23.855 8.8406V8.8406V8.83Z" stroke="#F7F7F7" stroke-width="2" stroke-linecap="round" stroke-linejoin="round"/>
<ellipse cx="14.2226" cy="13.7703" rx="2.94183" ry="3.05326" stroke="#F7F7F7" stroke-width="2" stroke-linecap="round" stroke-linejoin="round"/>
</svg>
