<svg width="17" height="15" viewBox="0 0 17 15" fill="none" xmlns="http://www.w3.org/2000/svg">
<path d="M5.30404 14.2764H12.5843C13.9315 14.2764 15.0062 13.8933 15.7441 13.1645C16.4822 12.4356 16.8704 11.3736 16.8704 10.0422V5.00921C16.8704 3.67771 16.4822 2.61577 15.7441 1.88683C15.0062 1.15807 13.9315 0.775 12.5843 0.775H5.30404C3.95676 0.775 2.88215 1.15807 2.14423 1.88683C1.40615 2.61577 1.01792 3.67771 1.01792 5.00921V10.0422C1.01792 11.3736 1.40615 12.4356 2.14423 13.1645C2.88215 13.8933 3.95676 14.2764 5.30404 14.2764ZM2.30995 5.00921C2.30995 3.99606 2.55921 3.26259 3.04646 2.78138C3.53396 2.29993 4.27736 2.05349 5.30404 2.05349H12.5843C13.6109 2.05349 14.3543 2.29993 14.8418 2.78138C15.3291 3.26259 15.5783 3.99606 15.5783 5.00921V10.0422C15.5783 11.0553 15.3291 11.7888 14.8418 12.27C14.3543 12.7514 13.6109 12.9979 12.5843 12.9979H5.30404C4.27736 12.9979 3.53396 12.7514 3.04646 12.27C2.55921 11.7888 2.30995 11.0553 2.30995 10.0422V5.00921Z" fill="#52B69A" stroke="#52B69A" stroke-width="0.2"/>
<path d="M4.89909 5.86364L4.89909 5.86364L4.89974 5.86416L7.17806 7.66133C7.67162 8.05861 8.31338 8.25113 8.94395 8.25113C9.57422 8.25113 10.2162 8.05877 10.7029 7.6611L12.9799 5.86492C13.2657 5.65021 13.3077 5.24108 13.0846 4.96849C12.867 4.68643 12.4543 4.64608 12.1796 4.86617C12.1795 4.86626 12.1794 4.86635 12.1793 4.86643L9.90125 6.66339L9.90106 6.66354C9.64533 6.86625 9.29539 6.97085 8.94031 6.97085C8.58523 6.97085 8.23529 6.86625 7.97956 6.66354L7.97937 6.6634L5.70133 4.86643C5.70121 4.86634 5.7011 4.86625 5.70099 4.86616C5.42339 4.64372 5.01947 4.69686 4.79709 4.96717C4.57047 5.24263 4.6251 5.64379 4.89909 5.86364Z" fill="#52B69A" stroke="#52B69A" stroke-width="0.2"/>
</svg>
