<svg width="25" height="25" viewBox="0 0 25 25" fill="none" xmlns="http://www.w3.org/2000/svg">
<path d="M7.21356 16.3803C5.79879 17.2227 2.08935 18.9428 4.34865 21.0952C5.4523 22.1467 6.68148 22.8987 8.22685 22.8987H17.0451C18.5905 22.8987 19.8197 22.1467 20.9233 21.0952C23.1826 18.9428 19.4732 17.2227 18.0584 16.3803C14.7408 14.4048 10.5312 14.4048 7.21356 16.3803Z" stroke="#F7F7F7" stroke-width="2" stroke-linecap="round" stroke-linejoin="round"/>
<path d="M17.136 7.39868C17.136 9.88396 15.1213 11.8987 12.636 11.8987C10.1507 11.8987 8.13599 9.88396 8.13599 7.39868C8.13599 4.9134 10.1507 2.89868 12.636 2.89868C15.1213 2.89868 17.136 4.9134 17.136 7.39868Z" stroke="#F7F7F7" stroke-width="2"/>
</svg>
